<svg width="43" height="44" viewBox="0 0 43 44" fill="none" xmlns="http://www.w3.org/2000/svg">
<g clip-path="url(#clip0_529_1244)">
<path d="M42.3246 16.6527C37.4106 16.6527 32.4966 16.6527 27.5806 16.6527C27.4216 16.6527 27.2626 16.6527 27.1026 16.6527C25.6386 12.1507 24.1766 7.64668 22.7136 3.14368C22.6226 2.86468 22.5316 2.58368 22.4406 2.30368C22.4226 2.07368 22.2756 1.90768 22.0826 1.81168C22.0526 1.79568 22.0236 1.78168 21.9916 1.76968C21.9506 1.75568 21.9096 1.74768 21.8666 1.73968C21.8216 1.73168 21.7796 1.72468 21.7346 1.72568C21.6896 1.72568 21.6466 1.73168 21.6026 1.73968C21.5596 1.74668 21.5186 1.75568 21.4776 1.76968C21.4456 1.78068 21.4166 1.79468 21.3876 1.81168C21.1946 1.90768 21.0466 2.07368 21.0286 2.30368C19.5206 6.94468 18.0126 11.5877 16.5046 16.2287C16.4586 16.3697 16.4126 16.5117 16.3666 16.6527C11.6206 16.6527 6.87656 16.6527 2.13057 16.6527C1.80157 16.6527 1.47357 16.6527 1.14457 16.6527C0.398565 16.6527 0.254565 17.5677 0.790565 17.9577C4.76657 20.8467 8.74257 23.7347 12.7186 26.6237C12.8286 26.7037 12.9386 26.7837 13.0496 26.8637C11.5796 31.3887 10.1096 35.9127 8.63857 40.4357C8.53656 40.7477 8.43556 41.0607 8.33356 41.3737C8.15257 41.9297 8.85956 42.5287 9.36156 42.1647C13.3376 39.2757 17.3136 36.3887 21.2906 33.4987C21.4386 33.3917 21.5866 33.2837 21.7356 33.1757C25.5936 35.9797 29.4516 38.7817 33.3106 41.5847C33.5776 41.7777 33.8426 41.9727 34.1086 42.1647C34.6106 42.5287 35.3176 41.9297 35.1366 41.3737C33.6176 36.6997 32.0996 32.0257 30.5786 27.3527C30.5266 27.1907 30.4736 27.0287 30.4206 26.8667C34.2406 24.0907 38.0606 21.3157 41.8816 18.5387C42.1476 18.3457 42.4126 18.1527 42.6796 17.9587C43.2146 17.5677 43.0726 16.6527 42.3246 16.6527ZM40.1746 18.0527C36.7986 20.5067 33.4216 22.9597 30.0426 25.4137C30.0176 25.4327 29.9906 25.4517 29.9656 25.4707C29.1616 22.9977 28.3586 20.5257 27.5546 18.0527C31.7616 18.0527 35.9686 18.0527 40.1746 18.0527ZM14.2366 27.7287C16.3406 29.2567 18.4446 30.7857 20.5476 32.3147C17.1436 34.7877 13.7396 37.2587 10.3356 39.7327C11.6356 35.7307 12.9366 31.7297 14.2366 27.7287ZM21.7336 31.4527C19.3846 29.7467 17.0366 28.0407 14.6896 26.3347C15.5876 23.5737 16.4836 20.8137 17.3816 18.0537C20.2826 18.0537 23.1836 18.0537 26.0856 18.0537C26.9836 20.8137 27.8806 23.5737 28.7776 26.3347C26.4296 28.0397 24.0816 29.7467 21.7336 31.4527ZM25.6156 16.6007C25.6216 16.6177 25.6276 16.6357 25.6326 16.6527C23.0346 16.6527 20.4366 16.6527 17.8376 16.6527C19.1356 12.6537 20.4356 8.65468 21.7346 4.65668C23.0276 8.63768 24.3216 12.6197 25.6156 16.6007ZM3.29257 18.0527C7.49057 18.0527 11.6886 18.0527 15.8876 18.0527C15.8946 18.0527 15.9026 18.0527 15.9096 18.0527C15.1056 20.5247 14.3026 22.9967 13.4996 25.4687C10.0966 22.9967 6.69456 20.5247 3.29257 18.0527ZM33.1316 39.7337C29.7276 37.2587 26.3236 34.7867 22.9186 32.3127C25.0226 30.7847 27.1256 29.2557 29.2306 27.7267C30.5316 31.7287 31.8306 35.7317 33.1316 39.7337Z" fill="#CCD3D8"/>
</g>
<defs>
<clipPath id="clip0_529_1244">
<rect width="42.532" height="42.532" fill="white" transform="translate(0.46875 0.734375)"/>
</clipPath>
</defs>
</svg>
