<svg width="56" height="57" viewBox="0 0 56 57" fill="none" xmlns="http://www.w3.org/2000/svg">
<g clip-path="url(#clip0_567_4370)">
<path d="M41.3964 25.0002V14.5001C41.3964 6.78242 35.2301 0.5 27.6465 0.5C20.065 0.5 13.8966 6.78242 13.8966 14.5001V25.0002C10.0996 25.0002 7.02148 28.1346 7.02148 31.9998V49.4998C7.02148 53.3662 10.0996 56.5 13.8966 56.5H41.3964C45.1926 56.5 48.2715 53.3662 48.2715 49.4998V31.9998C48.2716 28.1345 45.1926 25.0002 41.3964 25.0002ZM29.3654 41.9631V47.7498C29.3654 48.7172 28.5967 49.4998 27.6466 49.4998C26.6965 49.4998 25.9277 48.7172 25.9277 47.7498V41.9631C24.9189 41.355 24.2092 40.2815 24.2092 39.0001C24.2092 37.0652 25.7484 35.4999 27.6465 35.4999C29.5446 35.4999 31.084 37.0652 31.084 39.0001C31.0841 40.2815 30.3736 41.3551 29.3654 41.9631ZM34.5212 25.0002H20.7716V14.5001C20.7716 10.6378 23.8548 7.49994 27.6465 7.49994C31.4364 7.49994 34.5211 10.6378 34.5211 14.5001V25.0002H34.5212Z" fill="#ECE7E7"/>
</g>
<defs>
<clipPath id="clip0_567_4370">
<rect width="55" height="56" fill="white" transform="translate(0.146484 0.5)"/>
</clipPath>
</defs>
</svg>
