<svg width="56" height="57" viewBox="0 0 56 57" fill="none" xmlns="http://www.w3.org/2000/svg">
<g clip-path="url(#clip0_567_4376)">
<path d="M28.3828 26.8529C35.9767 26.8529 42.1328 20.9536 42.1328 13.6765C42.1328 6.39931 35.9767 0.5 28.3828 0.5C20.7889 0.5 14.6328 6.39931 14.6328 13.6765C14.6328 20.9536 20.7889 26.8529 28.3828 26.8529Z" fill="#750303"/>
<path d="M55.8828 56.4994V43.323C55.8828 41.3465 54.8516 39.37 53.1328 38.0524C49.3516 35.0877 44.5391 33.1112 39.7266 31.7935C36.2891 30.8053 32.5078 30.1465 28.3828 30.1465C24.6016 30.1465 20.8203 30.8053 17.0391 31.7935C12.2266 33.1112 7.41406 35.4171 3.63281 38.0524C1.91406 39.37 0.882812 41.3465 0.882812 43.323V56.4994H55.8828Z" fill="#750303"/>
</g>
<defs>
<clipPath id="clip0_567_4376">
<rect width="55" height="56" fill="white" transform="translate(0.882812 0.5)"/>
</clipPath>
</defs>
</svg>
