<svg width="17" height="14" viewBox="0 0 17 14" fill="none" xmlns="http://www.w3.org/2000/svg">
<path d="M11.966 4.92721C11.5532 4.93706 11.141 4.95537 10.7292 4.9765C10.6761 4.83519 10.6224 4.69387 10.5653 4.55444C10.155 3.55304 9.72721 2.52347 9.23874 1.55259C9.12188 1.31972 8.24723 -0.0511559 7.63438 0.0150407C7.58473 0.00893748 7.53257 0.0112876 7.4779 0.03617C6.73867 0.372317 6.57216 1.19296 6.41067 1.87981C6.39813 1.9338 6.38309 1.98732 6.37005 2.04178C6.25019 2.37981 6.15991 2.73568 6.0897 3.06854C5.90815 3.69341 5.72309 4.3197 5.5927 4.95162C5.55057 5.06852 5.50543 5.18495 5.46431 5.30279C3.79977 5.38729 2.14376 5.5225 0.525356 5.91968C0.36136 5.95959 0.277607 6.15677 0.37089 6.2901C1.27864 7.5915 2.87597 8.47036 4.45876 9.20181C4.35044 9.91824 3.70448 12.8454 3.6122 13.0689C3.43466 13.4999 3.60218 14.0295 4.14933 13.9849C4.37602 13.9675 8.42026 11.1661 8.56219 11.0708C9.61487 11.7328 10.7037 12.3426 11.7814 12.9717C12.1736 13.1999 13.0929 13.9248 13.6165 13.6276C14.2253 13.2821 12.6355 9.71871 12.5608 9.44407C12.5036 9.2328 12.4364 9.02388 12.3657 8.81684C13.789 8.09947 15.589 7.19526 16.2329 5.93001C17.0604 4.30561 12.5553 4.91312 11.966 4.92721ZM15.5087 5.884C15.1466 7.00043 13.1912 7.76098 12.2253 8.32201C12.1285 8.37788 12.0262 8.43515 11.9279 8.49196C12.0071 9.11731 13.4384 12.9849 13.2729 13.1393C13.1285 13.2745 12.4349 12.8792 12.4033 12.8525C11.7634 12.3027 11.0191 11.8084 10.3315 11.3084C9.86864 10.9713 9.32249 10.7506 8.84003 10.4549C7.75073 11.1525 4.3725 13.2468 4.30981 13.3342C4.26317 13.3553 4.14081 13.4562 4.11473 13.4539C3.67339 12.9797 5.02498 9.65439 5.18647 8.98116C4.87703 8.86661 2.84237 8.24502 1.35236 6.81827C1.24554 6.71639 1.20391 6.61592 1.22498 6.51404C1.22548 6.5117 1.22598 6.50982 1.22598 6.507C1.22748 6.50231 1.22749 6.49714 1.22849 6.49292C1.24153 6.34175 1.33932 6.19198 1.51234 6.14269C2.91509 5.74175 4.5716 5.79339 6.09923 5.75771C6.23564 5.46288 6.25019 5.10138 6.33244 4.75866C6.47186 4.18026 6.5872 3.59811 6.72412 3.01971C6.86655 2.4169 6.80587 1.15963 7.49495 0.851186C7.51702 0.841327 7.53909 0.835221 7.56065 0.829588C7.65293 0.766677 7.76828 0.734755 7.88814 0.76621C8.60732 0.95588 9.31697 2.97746 9.43081 3.30797C9.43132 3.29201 10.1229 5.39246 10.4885 5.52297C10.7378 5.51734 11.798 5.45161 11.9023 5.44927C11.9008 5.45631 12.6972 5.43096 13.0959 5.40795C13.7534 5.34363 15.3673 5.40138 15.4144 5.53236C15.5052 5.62391 15.5503 5.7549 15.5087 5.884Z" fill="#CCD3D8"/>
</svg>
