<svg width="56" height="57" viewBox="0 0 56 57" fill="none" xmlns="http://www.w3.org/2000/svg">
<path d="M27.8516 4C15.4766 4 5.50781 14.15 5.50781 26.4V36.375C5.50781 39.7 8.08594 42.325 11.3516 42.325C12.3828 42.325 14.1016 42.85 14.1016 44.25V49.5C14.1016 50.2 14.6172 50.9 15.3047 51.25C19.4297 52.65 23.7266 53.35 27.8516 53.35C31.9766 53.35 36.2734 52.65 40.3984 51.25C41.0859 51.075 41.6016 50.375 41.6016 49.5V44.25C41.6016 42.85 43.3203 42.325 44.3516 42.325C47.6172 42.325 50.1953 39.7 50.1953 36.375V26.4C50.1953 14.15 40.2266 4 27.8516 4ZM21.4922 38.475L19.4297 38.825C19.0859 38.825 18.7422 39 18.2266 39C16.8516 39 15.6484 38.475 14.4453 37.6C13.2422 36.55 12.3828 34.8 12.3828 33.05V32.7C12.3828 29.375 14.9609 26.75 18.2266 26.75H20.2891C22.1797 26.75 23.7266 27.625 24.9297 29.025C25.9609 30.425 26.4766 32.35 25.9609 34.1C25.4453 36.375 23.5547 37.95 21.4922 38.475ZM30.2578 42.325C30.0859 42.5 29.9141 42.5 29.5703 42.5C28.8828 42.5 28.3672 42.15 28.0234 41.45L27.8516 41.1L27.6797 41.45C27.3359 42.325 26.3047 42.675 25.4453 42.15C24.5859 41.8 24.2422 40.75 24.7578 39.875L26.4766 36.375C26.9922 35.15 28.8828 35.15 29.5703 36.375L31.2891 39.875C31.4609 40.75 31.1172 41.8 30.2578 42.325ZM43.3203 33.05C43.3203 34.8 42.4609 36.55 41.2578 37.6C40.2266 38.475 38.8516 39 37.4766 39C37.1328 39 36.7891 39 36.2734 38.825L34.2109 38.475C31.9766 37.95 30.2578 36.375 29.7422 34.1C29.2266 32.35 29.7422 30.425 30.7734 29.025C31.8047 27.625 33.5234 26.75 35.4141 26.75H37.4766C40.7422 26.75 43.3203 29.375 43.3203 32.7V33.05Z" fill="#750303"/>
</svg>
