<svg width="56" height="57" viewBox="0 0 56 57" fill="none" xmlns="http://www.w3.org/2000/svg">
<g clip-path="url(#clip0_567_4383)">
<path fill-rule="evenodd" clip-rule="evenodd" d="M30.3672 26.8834V14.5C30.3672 12.9544 29.1352 11.7 27.6172 11.7C26.0992 11.7 24.8672 12.9544 24.8672 14.5V28.4687C24.8623 28.9628 24.9861 29.4511 25.2247 29.8808C25.4927 30.3444 25.8461 30.6977 26.2688 30.9405L38.15 37.9249C39.4647 38.6977 41.1476 38.2385 41.9066 36.9C42.6656 35.5615 42.2147 33.8479 40.9 33.0751L30.3672 26.8834ZM27.6172 0.5C42.8054 0.5 55.1172 13.0356 55.1172 28.5C55.1172 43.9644 42.8054 56.5 27.6172 56.5C12.429 56.5 0.117188 43.9644 0.117188 28.5C0.117188 13.0356 12.429 0.5 27.6172 0.5Z" fill="#ECE7E7"/>
</g>
<defs>
<clipPath id="clip0_567_4383">
<rect width="55" height="56" fill="white" transform="translate(0.117188 0.5)"/>
</clipPath>
</defs>
</svg>
